<?xml version="1.0" encoding="utf-8"?>
<!-- Generator: Adobe Illustrator 16.0.0, SVG Export Plug-In . SVG Version: 6.00 Build 0)  -->
<!DOCTYPE svg PUBLIC "-//W3C//DTD SVG 1.1//EN" "http://www.w3.org/Graphics/SVG/1.1/DTD/svg11.dtd">
<svg version="1.1" id="Layer_1" xmlns="http://www.w3.org/2000/svg" xmlns:xlink="http://www.w3.org/1999/xlink" x="0px" y="0px"
	 width="256px" height="256px" viewBox="0 0 256 256" style="enable-background:new 0 0 256 256;" xml:space="preserve">
<rect style="fill:#CCCCCC;" width="256" height="256"/>
<g>
	<path style="fill:#FFFFFF;" d="M195.836,184.623h24.723c2.991,0,5.441-2.45,5.441-5.445V68.112c0-2.994-2.45-5.445-5.441-5.445
		H35.445c-2.994,0-5.445,2.451-5.445,5.445v111.066c0,2.995,2.451,5.445,5.445,5.445h24.717c-0.029-0.032-0.061-0.067-0.09-0.103
		c-0.602-0.756-0.812-1.773-0.579-2.792l5.856-25.456c0.453-1.964,2.383-3.5,4.395-3.5h116.511c2.016,0,3.944,1.536,4.394,3.5
		l5.858,25.456c0.233,1.019,0.024,2.035-0.578,2.792C195.901,184.555,195.871,184.591,195.836,184.623z M46.061,149.284
		c-2.994,0-5.444-2.451-5.444-5.443V78.406c0-2.996,2.451-5.445,5.444-5.445h163.877c2.996,0,5.446,2.449,5.446,5.445v65.435
		c0,2.992-2.45,5.443-5.446,5.443H46.061z"/>
	<path style="fill:#FFFFFF;" d="M220.559,185.714H35.445c-2.272,0-4.274-1.169-5.445-2.931v5.108c0,2.995,2.451,5.441,5.445,5.441
		h185.114c2.991,0,5.441-2.446,5.441-5.441v-5.108C224.83,184.545,222.826,185.714,220.559,185.714z M95.259,190.067
		c0,0.598-0.489,1.09-1.087,1.09H67.887c-0.599,0-1.09-0.492-1.09-1.09v-2.176c0-0.6,0.492-1.092,1.09-1.092h26.284
		c0.598,0,1.087,0.492,1.087,1.092V190.067z M103.715,190.067c0,0.598-0.49,1.09-1.088,1.09h-3.936c-0.598,0-1.089-0.492-1.089-1.09
		v-2.176c0-0.6,0.492-1.092,1.089-1.092h3.936c0.598,0,1.088,0.492,1.088,1.092V190.067z M149.233,190.067
		c0,0.598-0.492,1.09-1.09,1.09h-40.288c-0.599,0-1.089-0.492-1.089-1.09v-2.176c0-0.6,0.49-1.092,1.089-1.092h40.288
		c0.598,0,1.09,0.492,1.09,1.092V190.067z M158.398,190.067c0,0.598-0.492,1.09-1.091,1.09h-3.932c-0.603,0-1.09-0.492-1.09-1.09
		v-2.176c0-0.6,0.487-1.092,1.09-1.092h3.932c0.599,0,1.091,0.492,1.091,1.092V190.067z M189.204,190.067
		c0,0.598-0.491,1.09-1.09,1.09h-26.282c-0.599,0-1.09-0.492-1.09-1.09v-2.176c0-0.6,0.491-1.092,1.09-1.092h26.282
		c0.599,0,1.09,0.492,1.09,1.092V190.067z"/>
	<path style="fill:#FFFFFF;" d="M195.443,181.972l-5.854-25.456c-0.336-1.462-1.837-2.653-3.335-2.653H69.744
		c-1.496,0-2.996,1.191-3.333,2.653l-5.857,25.456c-0.335,1.459,0.615,2.651,2.112,2.651h130.666
		C194.83,184.623,195.78,183.431,195.443,181.972z M80.484,179.793c-2.254,0-4.083-1.831-4.083-4.086c0-2.254,1.828-4.08,4.083-4.08
		c2.254,0,4.081,1.826,4.081,4.08C84.565,177.962,82.738,179.793,80.484,179.793z M99.854,175.148c-1.579,0-2.857-1.276-2.857-2.857
		c0-1.577,1.278-2.856,2.857-2.856c1.577,0,2.857,1.279,2.857,2.856C102.711,173.872,101.431,175.148,99.854,175.148z
		 M156.146,175.148c-1.576,0-2.856-1.276-2.856-2.857c0-1.577,1.28-2.856,2.856-2.856c1.577,0,2.856,1.279,2.856,2.856
		C159.003,173.872,157.724,175.148,156.146,175.148z M175.516,179.793c-2.255,0-4.08-1.831-4.08-4.086c0-2.254,1.825-4.08,4.08-4.08
		c2.256,0,4.083,1.826,4.083,4.08C179.599,177.962,177.771,179.793,175.516,179.793z"/>
	<path style="fill:#FFFFFF;" d="M89.291,116.856c0,0.08,0,0.162,0,0.245v19.44c0,2.378-1.97,4.346-4.349,4.346
		c-2.297,0-4.429-1.968-4.429-4.346v-19.44c0-0.083,0-0.165,0-0.245c-0.082-4.513-3.854-8.203-8.447-8.203
		c-4.513,0-8.285,3.772-8.285,8.447v19.44c0,0.161-0.083,0.409-0.083,0.574c0,0.08,0,0.246,0,0.246
		c-0.083,0.163-0.083,0.328-0.245,0.489c0,0.084,0,0.248,0,0.413c-0.738,1.475-2.379,2.623-4.101,2.623
		c-0.33,0-0.574-0.081-0.822-0.081c-1.967-0.495-3.527-2.133-3.527-4.265v-19.44c0-0.083,0-0.083,0-0.083v-12.713
		c0-2.542,1.969-4.429,4.349-4.429c1.722,0,3.28,0.903,3.937,2.461c2.623-1.558,5.659-2.461,8.776-2.461
		c5.167,0,9.761,2.132,12.876,5.659c3.035-3.527,7.711-5.659,12.878-5.659c9.431,0,17.06,7.711,17.06,17.225v19.44
		c0,2.378-1.97,4.346-4.349,4.346c-2.376,0-4.429-1.968-4.429-4.346v-19.44c0-4.675-3.772-8.447-8.283-8.447
		C93.145,108.653,89.453,112.343,89.291,116.856z"/>
	<path style="fill:#FFFFFF;" d="M132.922,89.624c0,2.462-1.886,4.511-4.429,4.511c-2.462,0-4.429-2.049-4.429-4.511v-1.723
		c0-2.461,1.967-4.428,4.429-4.428c2.543,0,4.429,1.967,4.429,4.428V89.624z M132.922,104.47v31.987c0,2.462-1.886,4.43-4.429,4.43
		c-2.462,0-4.429-1.968-4.429-4.43V104.47c0-2.624,1.967-4.511,4.429-4.511C131.036,99.958,132.922,101.846,132.922,104.47z"/>
	<path style="fill:#FFFFFF;" d="M167.615,107.095l-9.761,13.451l9.761,13.534c1.394,1.804,0.903,4.674-0.819,5.906
		c-0.822,0.575-1.723,0.901-2.626,0.901c-1.313,0-2.542-0.739-3.609-1.804l-8.202-11.238l-8.204,11.238
		c-0.897,1.064-2.046,1.804-3.359,1.804c-0.903,0-1.886-0.326-2.626-0.901c-1.887-1.232-2.296-4.103-0.904-5.906l9.846-13.534
		l-9.846-13.451c-1.392-1.723-0.982-4.513,0.904-5.823c1.968-1.396,4.514-0.985,5.985,0.902l8.204,10.99l8.202-10.99
		c1.557-1.887,4.184-2.297,6.235-0.902C168.519,102.582,169.009,105.372,167.615,107.095z"/>
	<path style="fill:#FFFFFF;" d="M200.994,104.224c0,2.297-1.885,4.347-4.346,4.347c-1.886,0-3.527,0.493-4.922,1.558
		c-1.558,0.985-2.79,2.379-3.773,3.937c-1.967,2.626-2.951,5.742-3.36,6.889v15.586c0,2.378-2.051,4.346-4.513,4.346
		c-2.378,0-4.348-1.968-4.348-4.346v-32.317c0-2.378,1.97-4.265,4.348-4.265c2.462,0,4.513,1.887,4.513,4.265v0.574
		c0.49-0.574,1.147-1.23,1.723-1.642c2.705-1.803,6.231-3.28,10.333-3.198C199.109,99.958,200.994,101.846,200.994,104.224z"/>
</g>
</svg>
