<?xml version="1.0" encoding="utf-8"?>
<!DOCTYPE svg PUBLIC "-//W3C//DTD SVG 1.1//EN" "http://www.w3.org/Graphics/SVG/1.1/DTD/svg11.dtd">
<svg version="1.1" id="Layer_2" xmlns="http://www.w3.org/2000/svg" xmlns:xlink="http://www.w3.org/1999/xlink" x="0px" y="0px"
	 width="360px" height="240px" viewBox="0 0 360 240" style="enable-background:new 0 0 360 240;" xml:space="preserve">
<g>
	<path style="fill:#999999;" d="M360,230c0,5.5-4.5,10-10,10H10c-5.5,0-10-4.5-10-10V24c0-5.5,4.5-10,10-10h340c5.5,0,10,4.5,10,10
		V230z"/>
	<path style="fill:#CCCCCC;" d="M360,216c0,5.5-4.5,10-10,10H10c-5.5,0-10-4.5-10-10V10C0,4.5,4.5,0,10,0h340c5.5,0,10,4.5,10,10
		V216z"/>
	<path style="fill:#F2F2F2;" d="M340.5,149.092c0,5.5-4.5,10-10,10h-301c-5.5,0-10-4.5-10-10V28.906c0-5.5,4.5-10,10-10h301
		c5.5,0,10,4.5,10,10V149.092z"/>
	<path style="fill:#999999;" d="M303.992,219.211c0.003-0.35-0.027-0.71-0.113-1.084l-10.758-46.754
		c-0.616-2.681-3.371-4.873-6.121-4.873H73c-2.75,0-5.504,2.192-6.121,4.873l-10.758,46.754c-0.086,0.374-0.116,0.734-0.114,1.084
		h-0.01v4.375h0.044C56.231,225.555,57.774,227,60,227h240c2.226,0,3.769-1.445,3.959-3.414h0.044v-4.375H303.992z"/>
	<path style="fill:#808080;" d="M219,234c0,1.1-0.9,2-2,2h-74c-1.1,0-2-0.9-2-2v-4c0-1.1,0.9-2,2-2h74c1.1,0,2,0.9,2,2V234z"/>
	<path style="fill:#808080;" d="M240.138,230c0-1.1,0.9-2,2-2h48.275c1.1,0,2,0.9,2,2v4c0,1.1-0.9,2-2,2h-48.275c-1.1,0-2-0.9-2-2
		V230z"/>
	<path style="fill:#808080;" d="M224.604,230c0-1.1,0.9-2,2-2h7.228c1.1,0,2,0.9,2,2v4c0,1.1-0.9,2-2,2h-7.228c-1.1,0-2-0.9-2-2V230
		z"/>
	<path style="fill:#808080;" d="M119.862,234c0,1.1-0.9,2-2,2H69.587c-1.1,0-2-0.9-2-2v-4c0-1.1,0.9-2,2-2h48.275c1.1,0,2,0.9,2,2
		V234z"/>
	<path style="fill:#808080;" d="M135.396,234c0,1.1-0.9,2-2,2h-7.228c-1.1,0-2-0.9-2-2v-4c0-1.1,0.9-2,2-2h7.228c1.1,0,2,0.9,2,2
		V234z"/>
	<path style="fill:#B3B3B3;" d="M73,166.5c-2.75,0-5.504,2.192-6.121,4.873l-10.758,46.754C55.504,220.808,57.25,223,60,223h240
		c2.75,0,4.495-2.192,3.879-4.873l-10.758-46.754c-0.616-2.681-3.371-4.873-6.121-4.873H73z"/>
	<circle style="fill:#CCCCCC;" cx="92.725" cy="211.625" r="7.497"/>
	<circle style="fill:#CCCCCC;" cx="267.275" cy="211.625" r="7.497"/>
	<circle style="fill:#CCCCCC;" cx="231.697" cy="205.352" r="5.247"/>
	<circle style="fill:#CCCCCC;" cx="128.303" cy="205.352" r="5.247"/>
	<path style="fill:#999999;" d="M108.898,99.526c0,0.15,0,0.302,0,0.452v35.704c0,4.369-3.616,7.984-7.984,7.984
		c-4.219,0-8.136-3.615-8.136-7.984V99.979c0-0.15,0-0.302,0-0.452c-0.15-8.285-7.08-15.064-15.517-15.064
		c-8.286,0-15.216,6.93-15.216,15.517v35.704c0,0.301-0.15,0.753-0.15,1.055c0,0.15,0,0.452,0,0.452
		c-0.15,0.301-0.15,0.603-0.452,0.903c0,0.15,0,0.452,0,0.753c-1.355,2.712-4.369,4.821-7.532,4.821c-0.603,0-1.055-0.15-1.507-0.15
		c-3.615-0.904-6.478-3.917-6.478-7.834V99.979c0-0.15,0-0.15,0-0.15V76.478c0-4.671,3.615-8.136,7.984-8.136
		c3.163,0,6.025,1.657,7.231,4.52c4.82-2.862,10.395-4.52,16.119-4.52c9.491,0,17.928,3.917,23.652,10.396
		c5.573-6.479,14.161-10.396,23.651-10.396c17.325,0,31.336,14.161,31.336,31.637v35.704c0,4.369-3.616,7.984-7.984,7.984
		c-4.369,0-8.136-3.615-8.136-7.984V99.979c0-8.587-6.93-15.517-15.216-15.517C115.978,84.462,109.199,91.241,108.898,99.526z"/>
	<path style="fill:#999999;" d="M189.039,49.511c0,4.52-3.465,8.286-8.135,8.286c-4.52,0-8.135-3.767-8.135-8.286v-3.164
		c0-4.52,3.615-8.135,8.135-8.135c4.67,0,8.135,3.615,8.135,8.135V49.511z M189.039,76.778v58.754c0,4.52-3.465,8.135-8.135,8.135
		c-4.52,0-8.135-3.615-8.135-8.135V76.778c0-4.82,3.615-8.286,8.135-8.286C185.574,68.492,189.039,71.958,189.039,76.778z"/>
	<path style="fill:#999999;" d="M252.762,81.6l-17.928,24.706l17.928,24.857c2.561,3.314,1.658,8.587-1.506,10.847
		c-1.508,1.055-3.164,1.657-4.822,1.657c-2.41,0-4.67-1.355-6.627-3.314l-15.066-20.639l-15.064,20.639
		c-1.656,1.959-3.766,3.314-6.176,3.314c-1.658,0-3.465-0.603-4.822-1.657c-3.465-2.26-4.217-7.532-1.656-10.847l18.078-24.857
		L197.021,81.6c-2.561-3.164-1.809-8.286,1.656-10.696c3.617-2.562,8.287-1.808,10.998,1.657l15.064,20.187l15.066-20.187
		c2.861-3.465,7.682-4.219,11.449-1.657C254.42,73.313,255.322,78.436,252.762,81.6z"/>
	<path style="fill:#999999;" d="M314.074,76.326c0,4.219-3.467,7.984-7.986,7.984c-3.465,0-6.477,0.904-9.039,2.862
		c-2.861,1.809-5.121,4.369-6.93,7.231c-3.615,4.821-5.422,10.546-6.176,12.654v28.624c0,4.369-3.766,7.984-8.285,7.984
		c-4.369,0-7.984-3.615-7.984-7.984V76.326c0-4.368,3.615-7.834,7.984-7.834c4.52,0,8.285,3.466,8.285,7.834v1.055
		c0.904-1.055,2.109-2.26,3.164-3.013c4.971-3.314,11.449-6.026,18.98-5.876C310.607,68.492,314.074,71.958,314.074,76.326z"/>
</g>
</svg>
